<mxfile host="app.diagrams.net" modified="2022-02-07T04:28:13.953Z" agent="5.0 (Macintosh; Intel Mac OS X 10_15_7) AppleWebKit/537.36 (KHTML, like Gecko) Chrome/97.0.4692.99 Safari/537.36" etag="su53GsD6bPCckmSv-cTF" version="16.5.3" type="github">
  <diagram id="7Z4ACXIF1EgnriShLnFa" name="Page-1">
    <mxGraphModel dx="3362" dy="501" grid="1" gridSize="10" guides="1" tooltips="1" connect="1" arrows="1" fold="1" page="1" pageScale="1" pageWidth="850" pageHeight="1100" math="0" shadow="0">
      <root>
        <mxCell id="0" />
        <mxCell id="1" parent="0" />
        <mxCell id="RJNMnLvNXVVmQha1Nnx7-1" value="" style="strokeWidth=1;shadow=0;dashed=0;align=center;html=1;shape=mxgraph.mockup.containers.browserWindow;rSize=0;strokeColor=#666666;strokeColor2=#008cff;strokeColor3=#c4c4c4;mainText=,;recursiveResize=0;" vertex="1" parent="1">
          <mxGeometry x="-3260" y="190" width="540" height="2240" as="geometry" />
        </mxCell>
        <mxCell id="RJNMnLvNXVVmQha1Nnx7-2" value="Page 1" style="strokeWidth=1;shadow=0;dashed=0;align=center;html=1;shape=mxgraph.mockup.containers.anchor;fontSize=17;fontColor=#666666;align=left;" vertex="1" parent="RJNMnLvNXVVmQha1Nnx7-1">
          <mxGeometry x="60" y="12" width="110" height="26" as="geometry" />
        </mxCell>
        <mxCell id="RJNMnLvNXVVmQha1Nnx7-3" value="www.kiddiedrip.com" style="strokeWidth=1;shadow=0;dashed=0;align=center;html=1;shape=mxgraph.mockup.containers.anchor;rSize=0;fontSize=17;fontColor=#666666;align=left;" vertex="1" parent="RJNMnLvNXVVmQha1Nnx7-1">
          <mxGeometry x="130" y="60" width="250" height="26" as="geometry" />
        </mxCell>
        <mxCell id="RJNMnLvNXVVmQha1Nnx7-4" value="KIDDIE DRIP CLOTHING" style="text;html=1;strokeColor=none;fillColor=none;align=center;verticalAlign=middle;whiteSpace=wrap;rounded=0;" vertex="1" parent="RJNMnLvNXVVmQha1Nnx7-1">
          <mxGeometry x="30" y="130" width="150" height="30" as="geometry" />
        </mxCell>
        <mxCell id="RJNMnLvNXVVmQha1Nnx7-5" value="SHOP&amp;nbsp; &amp;nbsp;CONNECT&amp;nbsp; CONTACT" style="text;html=1;strokeColor=none;fillColor=none;align=center;verticalAlign=middle;whiteSpace=wrap;rounded=0;" vertex="1" parent="RJNMnLvNXVVmQha1Nnx7-1">
          <mxGeometry x="15" y="150" width="195" height="30" as="geometry" />
        </mxCell>
        <mxCell id="RJNMnLvNXVVmQha1Nnx7-7" value="" style="shape=image;html=1;verticalAlign=top;verticalLabelPosition=bottom;labelBackgroundColor=#ffffff;imageAspect=0;aspect=fixed;image=https://cdn3.iconfinder.com/data/icons/picons-social/57/06-facebook-128.png" vertex="1" parent="RJNMnLvNXVVmQha1Nnx7-1">
          <mxGeometry x="405" y="115" width="25" height="25" as="geometry" />
        </mxCell>
        <mxCell id="RJNMnLvNXVVmQha1Nnx7-8" value="" style="shape=image;html=1;verticalAlign=top;verticalLabelPosition=bottom;labelBackgroundColor=#ffffff;imageAspect=0;aspect=fixed;image=https://cdn4.iconfinder.com/data/icons/social-media-black-white-2/600/Instagram_glyph_svg-128.png" vertex="1" parent="RJNMnLvNXVVmQha1Nnx7-1">
          <mxGeometry x="440" y="115" width="25" height="25" as="geometry" />
        </mxCell>
        <mxCell id="RJNMnLvNXVVmQha1Nnx7-9" value="MAIN BANNER" style="rounded=0;whiteSpace=wrap;html=1;fillColor=#d5e8d4;strokeColor=#82b366;" vertex="1" parent="RJNMnLvNXVVmQha1Nnx7-1">
          <mxGeometry x="10" y="210" width="500" height="250" as="geometry" />
        </mxCell>
        <mxCell id="RJNMnLvNXVVmQha1Nnx7-11" value="&lt;font style=&quot;font-size: 25px&quot;&gt;New Arrivals&lt;/font&gt;" style="text;html=1;strokeColor=none;fillColor=none;align=center;verticalAlign=middle;whiteSpace=wrap;rounded=0;fontFamily=Verdana;fontSize=39;" vertex="1" parent="RJNMnLvNXVVmQha1Nnx7-1">
          <mxGeometry x="150" y="460" width="220" height="20" as="geometry" />
        </mxCell>
        <mxCell id="RJNMnLvNXVVmQha1Nnx7-12" value="" style="whiteSpace=wrap;html=1;aspect=fixed;fontFamily=Verdana;fontSize=34;strokeWidth=1;fillColor=#d5e8d4;strokeColor=#82b366;" vertex="1" parent="RJNMnLvNXVVmQha1Nnx7-1">
          <mxGeometry x="210" y="500" width="100" height="100" as="geometry" />
        </mxCell>
        <mxCell id="RJNMnLvNXVVmQha1Nnx7-17" value="&lt;font style=&quot;font-size: 21px&quot;&gt;New arrival Image&lt;/font&gt;" style="text;html=1;strokeColor=none;fillColor=none;align=center;verticalAlign=middle;whiteSpace=wrap;rounded=0;fontFamily=Verdana;fontSize=34;" vertex="1" parent="RJNMnLvNXVVmQha1Nnx7-1">
          <mxGeometry x="232.5" y="535" width="55" height="15" as="geometry" />
        </mxCell>
        <mxCell id="RJNMnLvNXVVmQha1Nnx7-19" value="&lt;font style=&quot;font-size: 15px&quot;&gt;Item Description&lt;/font&gt;" style="text;html=1;strokeColor=none;fillColor=none;align=center;verticalAlign=middle;whiteSpace=wrap;rounded=0;fontFamily=Verdana;fontSize=21;" vertex="1" parent="RJNMnLvNXVVmQha1Nnx7-1">
          <mxGeometry x="176.25" y="600" width="160" height="10" as="geometry" />
        </mxCell>
        <mxCell id="RJNMnLvNXVVmQha1Nnx7-25" value="About the CEO" style="rounded=0;whiteSpace=wrap;html=1;fontFamily=Verdana;fontSize=20;strokeWidth=1;" vertex="1" parent="RJNMnLvNXVVmQha1Nnx7-1">
          <mxGeometry x="10" y="880" width="485" height="40" as="geometry" />
        </mxCell>
        <mxCell id="RJNMnLvNXVVmQha1Nnx7-26" value="&lt;font style=&quot;font-size: 25px&quot;&gt;INSTAGRAM&lt;/font&gt;" style="text;html=1;strokeColor=none;fillColor=none;align=center;verticalAlign=middle;whiteSpace=wrap;rounded=0;fontFamily=Verdana;fontSize=20;" vertex="1" parent="RJNMnLvNXVVmQha1Nnx7-1">
          <mxGeometry x="170" y="930" width="150" height="10" as="geometry" />
        </mxCell>
        <mxCell id="RJNMnLvNXVVmQha1Nnx7-27" value="" style="whiteSpace=wrap;html=1;aspect=fixed;fontFamily=Verdana;fontSize=34;strokeWidth=1;fillColor=#d5e8d4;strokeColor=#82b366;" vertex="1" parent="RJNMnLvNXVVmQha1Nnx7-1">
          <mxGeometry x="202.5" y="960" width="100" height="100" as="geometry" />
        </mxCell>
        <mxCell id="RJNMnLvNXVVmQha1Nnx7-33" value="&lt;font style=&quot;font-size: 15px&quot;&gt;IG Image&lt;/font&gt;" style="text;html=1;strokeColor=none;fillColor=none;align=center;verticalAlign=middle;whiteSpace=wrap;rounded=0;fontFamily=Verdana;fontSize=31;" vertex="1" parent="RJNMnLvNXVVmQha1Nnx7-1">
          <mxGeometry x="212.5" y="995" width="80" height="30" as="geometry" />
        </mxCell>
        <mxCell id="RJNMnLvNXVVmQha1Nnx7-39" value="&lt;font style=&quot;font-size: 25px&quot;&gt;Location&lt;/font&gt;" style="text;html=1;strokeColor=none;fillColor=none;align=center;verticalAlign=middle;whiteSpace=wrap;rounded=0;fontFamily=Verdana;fontSize=31;" vertex="1" parent="RJNMnLvNXVVmQha1Nnx7-1">
          <mxGeometry x="175" y="1610" width="155" height="40" as="geometry" />
        </mxCell>
        <mxCell id="RJNMnLvNXVVmQha1Nnx7-40" value="" style="verticalLabelPosition=bottom;shadow=0;dashed=0;align=center;html=1;verticalAlign=top;strokeWidth=1;shape=mxgraph.mockup.misc.map;fontFamily=Verdana;fontSize=31;" vertex="1" parent="RJNMnLvNXVVmQha1Nnx7-1">
          <mxGeometry x="135" y="1680" width="250" height="215" as="geometry" />
        </mxCell>
        <mxCell id="RJNMnLvNXVVmQha1Nnx7-41" value="First Name" style="fillColor=none;strokeColor=none;align=left;fontSize=12;fontColor=#212529;fontFamily=Verdana;" vertex="1" parent="RJNMnLvNXVVmQha1Nnx7-1">
          <mxGeometry x="70" y="1915" width="200" height="20" as="geometry" />
        </mxCell>
        <mxCell id="RJNMnLvNXVVmQha1Nnx7-42" value="Your Name.." style="html=1;shadow=0;dashed=0;shape=mxgraph.bootstrap.rrect;rSize=5;fillColor=none;strokeColor=#999999;align=left;spacing=15;fontSize=12;fontColor=#6C767D;fontFamily=Verdana;" vertex="1" parent="RJNMnLvNXVVmQha1Nnx7-1">
          <mxGeometry x="70" y="1940" width="330" height="20" as="geometry" />
        </mxCell>
        <mxCell id="RJNMnLvNXVVmQha1Nnx7-43" value="Last Name" style="fillColor=none;strokeColor=none;align=left;fontSize=14;fontColor=#212529;fontFamily=Verdana;" vertex="1" parent="RJNMnLvNXVVmQha1Nnx7-1">
          <mxGeometry x="75" y="1960" width="165" height="20" as="geometry" />
        </mxCell>
        <mxCell id="RJNMnLvNXVVmQha1Nnx7-44" value="Your Last Name..." style="html=1;shadow=0;dashed=0;shape=mxgraph.bootstrap.rrect;rSize=5;fillColor=none;strokeColor=#999999;align=left;spacing=15;fontSize=14;fontColor=#6C767D;fontFamily=Verdana;" vertex="1" parent="RJNMnLvNXVVmQha1Nnx7-1">
          <mxGeometry x="70" y="1980" width="330" height="20" as="geometry" />
        </mxCell>
        <mxCell id="RJNMnLvNXVVmQha1Nnx7-45" value="Comment" style="fillColor=none;strokeColor=none;align=left;fontSize=16;fontColor=#212529;fontFamily=Verdana;" vertex="1" parent="RJNMnLvNXVVmQha1Nnx7-1">
          <mxGeometry x="70" y="2000" width="95" height="20" as="geometry" />
        </mxCell>
        <mxCell id="RJNMnLvNXVVmQha1Nnx7-46" value="Write Something..." style="html=1;shadow=0;dashed=0;shape=mxgraph.bootstrap.rrect;rSize=5;fillColor=none;strokeColor=#999999;align=left;spacing=15;fontSize=16;fontColor=#6C767D;fontFamily=Verdana;" vertex="1" parent="RJNMnLvNXVVmQha1Nnx7-1">
          <mxGeometry x="70" y="2020" width="335" height="70" as="geometry" />
        </mxCell>
        <mxCell id="RJNMnLvNXVVmQha1Nnx7-47" value="&lt;pre&gt;&lt;font face=&quot;Times New Roman&quot; style=&quot;background-color: rgb(179 , 179 , 179) ; font-size: 20px&quot; color=&quot;#ffffff&quot;&gt;Submit&lt;/font&gt;&lt;/pre&gt;" style="rounded=0;whiteSpace=wrap;html=1;fontFamily=Verdana;fontSize=31;strokeWidth=1;" vertex="1" parent="RJNMnLvNXVVmQha1Nnx7-1">
          <mxGeometry x="82.5" y="2100" width="45" height="20" as="geometry" />
        </mxCell>
        <mxCell id="RJNMnLvNXVVmQha1Nnx7-48" value="&lt;span style=&quot;color: rgb(0 , 0 , 0) ; font-family: &amp;#34;roboto&amp;#34; , sans-serif ; font-size: 16px ; background-color: rgb(255 , 255 , 255)&quot;&gt;Â© Kiddie Drip Closet 2022&lt;/span&gt;" style="text;html=1;strokeColor=none;fillColor=none;align=center;verticalAlign=middle;whiteSpace=wrap;rounded=0;labelBackgroundColor=#B3B3B3;fontFamily=Times New Roman;fontSize=20;fontColor=#FFFFFF;" vertex="1" parent="RJNMnLvNXVVmQha1Nnx7-1">
          <mxGeometry x="141.25" y="2155" width="195" height="10" as="geometry" />
        </mxCell>
        <mxCell id="RJNMnLvNXVVmQha1Nnx7-119" value="" style="edgeStyle=orthogonalEdgeStyle;rounded=0;orthogonalLoop=1;jettySize=auto;html=1;fontSize=25;" edge="1" parent="RJNMnLvNXVVmQha1Nnx7-1" source="RJNMnLvNXVVmQha1Nnx7-49" target="RJNMnLvNXVVmQha1Nnx7-51">
          <mxGeometry relative="1" as="geometry" />
        </mxCell>
        <mxCell id="RJNMnLvNXVVmQha1Nnx7-49" value="" style="shape=image;html=1;verticalAlign=top;verticalLabelPosition=bottom;labelBackgroundColor=#ffffff;imageAspect=0;aspect=fixed;image=https://cdn1.iconfinder.com/data/icons/social-media-outline-6/128/SocialMedia_Instagram-Outline-128.png;fontFamily=Times New Roman;fontSize=20;fontColor=#000000;strokeWidth=1;" vertex="1" parent="RJNMnLvNXVVmQha1Nnx7-1">
          <mxGeometry x="250" y="2185" width="20" height="20" as="geometry" />
        </mxCell>
        <mxCell id="RJNMnLvNXVVmQha1Nnx7-50" value="" style="shape=image;html=1;verticalAlign=top;verticalLabelPosition=bottom;labelBackgroundColor=#ffffff;imageAspect=0;aspect=fixed;image=https://cdn4.iconfinder.com/data/icons/ionicons/512/icon-social-facebook-128.png;fontFamily=Times New Roman;fontSize=20;fontColor=#000000;strokeWidth=1;" vertex="1" parent="RJNMnLvNXVVmQha1Nnx7-1">
          <mxGeometry x="228.75" y="2185" width="20" height="20" as="geometry" />
        </mxCell>
        <mxCell id="RJNMnLvNXVVmQha1Nnx7-51" value="" style="shape=image;html=1;verticalAlign=top;verticalLabelPosition=bottom;labelBackgroundColor=#ffffff;imageAspect=0;aspect=fixed;image=https://cdn1.iconfinder.com/data/icons/uiux-001-solid/32/Mail_Message_Envelope-128.png;fontFamily=Times New Roman;fontSize=20;fontColor=#000000;strokeWidth=1;" vertex="1" parent="RJNMnLvNXVVmQha1Nnx7-1">
          <mxGeometry x="208.75" y="2185" width="20" height="20" as="geometry" />
        </mxCell>
        <mxCell id="RJNMnLvNXVVmQha1Nnx7-52" value="" style="ellipse;whiteSpace=wrap;html=1;aspect=fixed;labelBackgroundColor=#FFFFFF;fontFamily=Times New Roman;fontSize=20;fontColor=#000000;strokeWidth=1;" vertex="1" parent="RJNMnLvNXVVmQha1Nnx7-1">
          <mxGeometry x="410" y="2160" width="60" height="60" as="geometry" />
        </mxCell>
        <mxCell id="RJNMnLvNXVVmQha1Nnx7-53" value="" style="shape=image;html=1;verticalAlign=top;verticalLabelPosition=bottom;labelBackgroundColor=#ffffff;imageAspect=0;aspect=fixed;image=https://cdn4.iconfinder.com/data/icons/ionicons/512/icon-arrow-up-c-128.png;fontFamily=Times New Roman;fontSize=20;fontColor=#000000;strokeWidth=1;" vertex="1" parent="RJNMnLvNXVVmQha1Nnx7-1">
          <mxGeometry x="415" y="2170" width="50" height="50" as="geometry" />
        </mxCell>
        <mxCell id="RJNMnLvNXVVmQha1Nnx7-54" value="" style="shape=image;html=1;verticalAlign=top;verticalLabelPosition=bottom;labelBackgroundColor=#ffffff;imageAspect=0;aspect=fixed;image=https://cdn1.iconfinder.com/data/icons/uiux-001-solid/32/Mail_Message_Envelope-128.png;fontFamily=Times New Roman;fontSize=20;fontColor=#000000;strokeWidth=1;" vertex="1" parent="RJNMnLvNXVVmQha1Nnx7-1">
          <mxGeometry x="367.5" y="115" width="25" height="25" as="geometry" />
        </mxCell>
        <mxCell id="RJNMnLvNXVVmQha1Nnx7-10" value="&lt;font style=&quot;font-size: 39px&quot; face=&quot;Verdana&quot;&gt;&lt;b&gt;WHERE KIDS CAN GET FRESH&lt;/b&gt;&lt;/font&gt;" style="text;html=1;strokeColor=none;fillColor=none;align=center;verticalAlign=middle;whiteSpace=wrap;rounded=0;strokeWidth=1;" vertex="1" parent="RJNMnLvNXVVmQha1Nnx7-1">
          <mxGeometry x="70" y="350" width="360" height="70" as="geometry" />
        </mxCell>
        <mxCell id="RJNMnLvNXVVmQha1Nnx7-58" value="" style="whiteSpace=wrap;html=1;aspect=fixed;fontFamily=Verdana;fontSize=34;strokeWidth=1;fillColor=#d5e8d4;strokeColor=#82b366;" vertex="1" parent="RJNMnLvNXVVmQha1Nnx7-1">
          <mxGeometry x="210" y="620" width="100" height="100" as="geometry" />
        </mxCell>
        <mxCell id="RJNMnLvNXVVmQha1Nnx7-60" value="&lt;font style=&quot;font-size: 21px&quot;&gt;New arrival Image&lt;/font&gt;" style="text;html=1;strokeColor=none;fillColor=none;align=center;verticalAlign=middle;whiteSpace=wrap;rounded=0;fontFamily=Verdana;fontSize=34;" vertex="1" parent="RJNMnLvNXVVmQha1Nnx7-1">
          <mxGeometry x="232.5" y="640" width="47.5" height="50" as="geometry" />
        </mxCell>
        <mxCell id="RJNMnLvNXVVmQha1Nnx7-61" value="" style="whiteSpace=wrap;html=1;aspect=fixed;fontFamily=Verdana;fontSize=34;strokeWidth=1;fillColor=#d5e8d4;strokeColor=#82b366;" vertex="1" parent="RJNMnLvNXVVmQha1Nnx7-1">
          <mxGeometry x="210" y="740" width="100" height="100" as="geometry" />
        </mxCell>
        <mxCell id="RJNMnLvNXVVmQha1Nnx7-62" value="&lt;font style=&quot;font-size: 21px&quot;&gt;New arrival Image&lt;/font&gt;" style="text;html=1;strokeColor=none;fillColor=none;align=center;verticalAlign=middle;whiteSpace=wrap;rounded=0;fontFamily=Verdana;fontSize=34;" vertex="1" parent="RJNMnLvNXVVmQha1Nnx7-1">
          <mxGeometry x="236.25" y="770" width="43.75" height="30" as="geometry" />
        </mxCell>
        <mxCell id="RJNMnLvNXVVmQha1Nnx7-63" value="&lt;font style=&quot;font-size: 15px&quot;&gt;Item Description&lt;/font&gt;" style="text;html=1;strokeColor=none;fillColor=none;align=center;verticalAlign=middle;whiteSpace=wrap;rounded=0;fontFamily=Verdana;fontSize=21;" vertex="1" parent="RJNMnLvNXVVmQha1Nnx7-1">
          <mxGeometry x="175" y="720" width="160" height="10" as="geometry" />
        </mxCell>
        <mxCell id="RJNMnLvNXVVmQha1Nnx7-64" value="&lt;font style=&quot;font-size: 15px&quot;&gt;Item Description&lt;/font&gt;" style="text;html=1;strokeColor=none;fillColor=none;align=center;verticalAlign=middle;whiteSpace=wrap;rounded=0;fontFamily=Verdana;fontSize=21;" vertex="1" parent="RJNMnLvNXVVmQha1Nnx7-1">
          <mxGeometry x="175" y="850" width="160" height="10" as="geometry" />
        </mxCell>
        <mxCell id="RJNMnLvNXVVmQha1Nnx7-66" value="" style="whiteSpace=wrap;html=1;aspect=fixed;fontFamily=Verdana;fontSize=34;strokeWidth=1;fillColor=#d5e8d4;strokeColor=#82b366;" vertex="1" parent="RJNMnLvNXVVmQha1Nnx7-1">
          <mxGeometry x="202.5" y="1070" width="100" height="100" as="geometry" />
        </mxCell>
        <mxCell id="RJNMnLvNXVVmQha1Nnx7-67" value="&lt;font style=&quot;font-size: 15px&quot;&gt;IG Image&lt;/font&gt;" style="text;html=1;strokeColor=none;fillColor=none;align=center;verticalAlign=middle;whiteSpace=wrap;rounded=0;fontFamily=Verdana;fontSize=31;" vertex="1" parent="RJNMnLvNXVVmQha1Nnx7-1">
          <mxGeometry x="212.5" y="1110" width="80" height="30" as="geometry" />
        </mxCell>
        <mxCell id="RJNMnLvNXVVmQha1Nnx7-68" value="" style="whiteSpace=wrap;html=1;aspect=fixed;fontFamily=Verdana;fontSize=34;strokeWidth=1;fillColor=#d5e8d4;strokeColor=#82b366;" vertex="1" parent="RJNMnLvNXVVmQha1Nnx7-1">
          <mxGeometry x="202.5" y="1180" width="100" height="100" as="geometry" />
        </mxCell>
        <mxCell id="RJNMnLvNXVVmQha1Nnx7-69" value="" style="whiteSpace=wrap;html=1;aspect=fixed;fontFamily=Verdana;fontSize=34;strokeWidth=1;fillColor=#d5e8d4;strokeColor=#82b366;" vertex="1" parent="RJNMnLvNXVVmQha1Nnx7-1">
          <mxGeometry x="200" y="1290" width="100" height="100" as="geometry" />
        </mxCell>
        <mxCell id="RJNMnLvNXVVmQha1Nnx7-113" value="" style="whiteSpace=wrap;html=1;aspect=fixed;fontFamily=Verdana;fontSize=34;strokeWidth=1;fillColor=#d5e8d4;strokeColor=#82b366;" vertex="1" parent="RJNMnLvNXVVmQha1Nnx7-1">
          <mxGeometry x="200" y="1400" width="100" height="100" as="geometry" />
        </mxCell>
        <mxCell id="RJNMnLvNXVVmQha1Nnx7-114" value="" style="whiteSpace=wrap;html=1;aspect=fixed;fontFamily=Verdana;fontSize=34;strokeWidth=1;fillColor=#d5e8d4;strokeColor=#82b366;" vertex="1" parent="RJNMnLvNXVVmQha1Nnx7-1">
          <mxGeometry x="200" y="1510" width="100" height="100" as="geometry" />
        </mxCell>
        <mxCell id="RJNMnLvNXVVmQha1Nnx7-115" value="&lt;font style=&quot;font-size: 15px&quot;&gt;IG Image&lt;/font&gt;" style="text;html=1;strokeColor=none;fillColor=none;align=center;verticalAlign=middle;whiteSpace=wrap;rounded=0;fontFamily=Verdana;fontSize=31;" vertex="1" parent="RJNMnLvNXVVmQha1Nnx7-1">
          <mxGeometry x="212.5" y="1215" width="80" height="30" as="geometry" />
        </mxCell>
        <mxCell id="RJNMnLvNXVVmQha1Nnx7-116" value="&lt;font style=&quot;font-size: 15px&quot;&gt;IG Image&lt;/font&gt;" style="text;html=1;strokeColor=none;fillColor=none;align=center;verticalAlign=middle;whiteSpace=wrap;rounded=0;fontFamily=Verdana;fontSize=31;" vertex="1" parent="RJNMnLvNXVVmQha1Nnx7-1">
          <mxGeometry x="212.5" y="1320" width="80" height="30" as="geometry" />
        </mxCell>
        <mxCell id="RJNMnLvNXVVmQha1Nnx7-117" value="&lt;font style=&quot;font-size: 15px&quot;&gt;IG Image&lt;/font&gt;" style="text;html=1;strokeColor=none;fillColor=none;align=center;verticalAlign=middle;whiteSpace=wrap;rounded=0;fontFamily=Verdana;fontSize=31;" vertex="1" parent="RJNMnLvNXVVmQha1Nnx7-1">
          <mxGeometry x="210" y="1435" width="80" height="30" as="geometry" />
        </mxCell>
        <mxCell id="RJNMnLvNXVVmQha1Nnx7-118" value="&lt;font style=&quot;font-size: 15px&quot;&gt;IG Image&lt;/font&gt;" style="text;html=1;strokeColor=none;fillColor=none;align=center;verticalAlign=middle;whiteSpace=wrap;rounded=0;fontFamily=Verdana;fontSize=31;" vertex="1" parent="RJNMnLvNXVVmQha1Nnx7-1">
          <mxGeometry x="215" y="1540" width="80" height="30" as="geometry" />
        </mxCell>
      </root>
    </mxGraphModel>
  </diagram>
</mxfile>
